# xmcd CD database file
#
# Track frame offsets:
#	150
#	20956
#	48475
#	140864
#	182480
#
# Disc length: 2713 seconds
#
# Revision: 0
# Processed by: cddbd v1.5.2PL0 Copyright (c) Steve Scherf et al.
# Submitted via: CDex 1.70beta2
#
DISCID=480a9705
DTITLE=Hawkins, Coleman - XXXX
DYEAR=1959
DGENRE=Jazz
TTITLE0=Time After Time
TTITLE1=Young Bean
TTITLE2=In A Mellow Tone
TTITLE3=Budd Johnson
TTITLE4=De Dar
EXTD=YEAR: 1959
EXTT0=
EXTT1=
EXTT2=
EXTT3=
EXTT4=
PLAYORDER=
